<mxfile host="app.diagrams.net" modified="2024-02-18T13:56:02.197Z" agent="Mozilla/5.0 (Macintosh; Intel Mac OS X 10_15_7) AppleWebKit/537.36 (KHTML, like Gecko) Chrome/94.0.4606.61 Safari/537.36" etag="llt1DiPfR6-rnABoHVqN" version="23.0.2" type="device" pages="2">
  <diagram name="architecture" id="91JNf17hTIzRDChrvis_">
    <mxGraphModel dx="954" dy="623" grid="1" gridSize="10" guides="1" tooltips="1" connect="1" arrows="1" fold="1" page="1" pageScale="1" pageWidth="850" pageHeight="1100" math="0" shadow="0">
      <root>
        <mxCell id="0" />
        <mxCell id="1" parent="0" />
        <mxCell id="eGRbTAZArEqUaQRnQCFs-2" value="Huấn luyện" style="swimlane;horizontal=0;whiteSpace=wrap;html=1;" vertex="1" parent="1">
          <mxGeometry x="200" y="100" width="860" height="130" as="geometry" />
        </mxCell>
        <mxCell id="eGRbTAZArEqUaQRnQCFs-12" value="" style="edgeStyle=orthogonalEdgeStyle;rounded=0;orthogonalLoop=1;jettySize=auto;html=1;" edge="1" parent="eGRbTAZArEqUaQRnQCFs-2" source="eGRbTAZArEqUaQRnQCFs-4" target="eGRbTAZArEqUaQRnQCFs-6">
          <mxGeometry relative="1" as="geometry" />
        </mxCell>
        <mxCell id="eGRbTAZArEqUaQRnQCFs-18" value="PREPROCESS" style="edgeLabel;html=1;align=center;verticalAlign=middle;resizable=0;points=[];" vertex="1" connectable="0" parent="eGRbTAZArEqUaQRnQCFs-12">
          <mxGeometry x="-0.2824" relative="1" as="geometry">
            <mxPoint x="11" as="offset" />
          </mxGeometry>
        </mxCell>
        <mxCell id="eGRbTAZArEqUaQRnQCFs-4" value="Tập dữ liệu" style="rounded=1;whiteSpace=wrap;html=1;" vertex="1" parent="eGRbTAZArEqUaQRnQCFs-2">
          <mxGeometry x="40" y="35" width="120" height="60" as="geometry" />
        </mxCell>
        <mxCell id="eGRbTAZArEqUaQRnQCFs-25" value="" style="edgeStyle=orthogonalEdgeStyle;rounded=0;orthogonalLoop=1;jettySize=auto;html=1;" edge="1" parent="eGRbTAZArEqUaQRnQCFs-2" source="eGRbTAZArEqUaQRnQCFs-6" target="eGRbTAZArEqUaQRnQCFs-24">
          <mxGeometry relative="1" as="geometry" />
        </mxCell>
        <mxCell id="eGRbTAZArEqUaQRnQCFs-6" value="Dữ liệu huấn luyện" style="rounded=1;whiteSpace=wrap;html=1;" vertex="1" parent="eGRbTAZArEqUaQRnQCFs-2">
          <mxGeometry x="270" y="35" width="120" height="60" as="geometry" />
        </mxCell>
        <mxCell id="eGRbTAZArEqUaQRnQCFs-24" value="Huấn luyện" style="rounded=1;whiteSpace=wrap;html=1;" vertex="1" parent="eGRbTAZArEqUaQRnQCFs-2">
          <mxGeometry x="430" y="35" width="120" height="60" as="geometry" />
        </mxCell>
        <mxCell id="eGRbTAZArEqUaQRnQCFs-7" value="Dự đoán" style="swimlane;horizontal=0;whiteSpace=wrap;html=1;" vertex="1" parent="1">
          <mxGeometry x="200" y="230" width="860" height="130" as="geometry" />
        </mxCell>
        <mxCell id="eGRbTAZArEqUaQRnQCFs-15" value="" style="edgeStyle=orthogonalEdgeStyle;rounded=0;orthogonalLoop=1;jettySize=auto;html=1;" edge="1" parent="eGRbTAZArEqUaQRnQCFs-7" source="eGRbTAZArEqUaQRnQCFs-8" target="eGRbTAZArEqUaQRnQCFs-9">
          <mxGeometry relative="1" as="geometry" />
        </mxCell>
        <mxCell id="eGRbTAZArEqUaQRnQCFs-26" value="PREPROCESS" style="edgeLabel;html=1;align=center;verticalAlign=middle;resizable=0;points=[];" vertex="1" connectable="0" parent="eGRbTAZArEqUaQRnQCFs-15">
          <mxGeometry x="-0.1571" y="-2" relative="1" as="geometry">
            <mxPoint as="offset" />
          </mxGeometry>
        </mxCell>
        <mxCell id="eGRbTAZArEqUaQRnQCFs-8" value="Ảnh đầu vào" style="rounded=1;whiteSpace=wrap;html=1;" vertex="1" parent="eGRbTAZArEqUaQRnQCFs-7">
          <mxGeometry x="40" y="35" width="120" height="60" as="geometry" />
        </mxCell>
        <mxCell id="eGRbTAZArEqUaQRnQCFs-16" value="" style="edgeStyle=orthogonalEdgeStyle;rounded=0;orthogonalLoop=1;jettySize=auto;html=1;" edge="1" parent="eGRbTAZArEqUaQRnQCFs-7" source="eGRbTAZArEqUaQRnQCFs-9" target="eGRbTAZArEqUaQRnQCFs-10">
          <mxGeometry relative="1" as="geometry" />
        </mxCell>
        <mxCell id="eGRbTAZArEqUaQRnQCFs-9" value="Dữ liệu đầu vào" style="rounded=1;whiteSpace=wrap;html=1;" vertex="1" parent="eGRbTAZArEqUaQRnQCFs-7">
          <mxGeometry x="270" y="35" width="120" height="60" as="geometry" />
        </mxCell>
        <mxCell id="eGRbTAZArEqUaQRnQCFs-10" value="Mô hình đã được huấn luyện" style="rounded=1;whiteSpace=wrap;html=1;" vertex="1" parent="eGRbTAZArEqUaQRnQCFs-7">
          <mxGeometry x="430" y="35" width="120" height="60" as="geometry" />
        </mxCell>
        <mxCell id="eGRbTAZArEqUaQRnQCFs-29" value="" style="edgeStyle=orthogonalEdgeStyle;rounded=0;orthogonalLoop=1;jettySize=auto;html=1;" edge="1" parent="eGRbTAZArEqUaQRnQCFs-7" source="eGRbTAZArEqUaQRnQCFs-11" target="eGRbTAZArEqUaQRnQCFs-28">
          <mxGeometry relative="1" as="geometry" />
        </mxCell>
        <mxCell id="eGRbTAZArEqUaQRnQCFs-11" value="Đầu ra của mô hình" style="rounded=1;whiteSpace=wrap;html=1;" vertex="1" parent="eGRbTAZArEqUaQRnQCFs-7">
          <mxGeometry x="580" y="35" width="120" height="60" as="geometry" />
        </mxCell>
        <mxCell id="eGRbTAZArEqUaQRnQCFs-17" value="" style="edgeStyle=orthogonalEdgeStyle;rounded=0;orthogonalLoop=1;jettySize=auto;html=1;" edge="1" parent="eGRbTAZArEqUaQRnQCFs-7" source="eGRbTAZArEqUaQRnQCFs-10" target="eGRbTAZArEqUaQRnQCFs-11">
          <mxGeometry relative="1" as="geometry" />
        </mxCell>
        <mxCell id="eGRbTAZArEqUaQRnQCFs-28" value="Đầu ra" style="rounded=1;whiteSpace=wrap;html=1;" vertex="1" parent="eGRbTAZArEqUaQRnQCFs-7">
          <mxGeometry x="730" y="35" width="120" height="60" as="geometry" />
        </mxCell>
        <mxCell id="eGRbTAZArEqUaQRnQCFs-30" value="" style="edgeStyle=orthogonalEdgeStyle;rounded=0;orthogonalLoop=1;jettySize=auto;html=1;" edge="1" parent="1" source="eGRbTAZArEqUaQRnQCFs-24" target="eGRbTAZArEqUaQRnQCFs-10">
          <mxGeometry relative="1" as="geometry" />
        </mxCell>
      </root>
    </mxGraphModel>
  </diagram>
  <diagram id="qd23dJcUgvZZvSSzkukW" name="prepare-data">
    <mxGraphModel dx="954" dy="623" grid="1" gridSize="10" guides="1" tooltips="1" connect="1" arrows="1" fold="1" page="1" pageScale="1" pageWidth="850" pageHeight="1100" math="0" shadow="0">
      <root>
        <mxCell id="0" />
        <mxCell id="1" parent="0" />
        <mxCell id="myVGEh9yJhK38Pp-jUiO-4" style="edgeStyle=orthogonalEdgeStyle;rounded=0;orthogonalLoop=1;jettySize=auto;html=1;entryX=0;entryY=0.5;entryDx=0;entryDy=0;" edge="1" parent="1" source="myVGEh9yJhK38Pp-jUiO-1" target="myVGEh9yJhK38Pp-jUiO-2">
          <mxGeometry relative="1" as="geometry" />
        </mxCell>
        <mxCell id="myVGEh9yJhK38Pp-jUiO-5" value="MTCNN" style="edgeLabel;html=1;align=center;verticalAlign=middle;resizable=0;points=[];" vertex="1" connectable="0" parent="myVGEh9yJhK38Pp-jUiO-4">
          <mxGeometry x="-0.2308" relative="1" as="geometry">
            <mxPoint as="offset" />
          </mxGeometry>
        </mxCell>
        <mxCell id="myVGEh9yJhK38Pp-jUiO-1" value="Ảnh đầu vào" style="rounded=1;whiteSpace=wrap;html=1;" vertex="1" parent="1">
          <mxGeometry x="40" y="200" width="120" height="60" as="geometry" />
        </mxCell>
        <mxCell id="myVGEh9yJhK38Pp-jUiO-6" style="edgeStyle=orthogonalEdgeStyle;rounded=0;orthogonalLoop=1;jettySize=auto;html=1;entryX=0;entryY=0.5;entryDx=0;entryDy=0;" edge="1" parent="1" source="myVGEh9yJhK38Pp-jUiO-2" target="myVGEh9yJhK38Pp-jUiO-3">
          <mxGeometry relative="1" as="geometry" />
        </mxCell>
        <mxCell id="myVGEh9yJhK38Pp-jUiO-7" value="Điều chỉnh kích thước&lt;br&gt;điều chỉnh kênh màu" style="edgeLabel;html=1;align=center;verticalAlign=middle;resizable=0;points=[];" vertex="1" connectable="0" parent="myVGEh9yJhK38Pp-jUiO-6">
          <mxGeometry x="-0.3379" y="-1" relative="1" as="geometry">
            <mxPoint x="17" y="-1" as="offset" />
          </mxGeometry>
        </mxCell>
        <mxCell id="myVGEh9yJhK38Pp-jUiO-2" value="Ảnh khuôn mặt" style="rounded=1;whiteSpace=wrap;html=1;" vertex="1" parent="1">
          <mxGeometry x="360" y="200" width="120" height="60" as="geometry" />
        </mxCell>
        <mxCell id="myVGEh9yJhK38Pp-jUiO-3" value="Dữ liệu huấn luyện" style="rounded=1;whiteSpace=wrap;html=1;" vertex="1" parent="1">
          <mxGeometry x="670" y="200" width="120" height="60" as="geometry" />
        </mxCell>
      </root>
    </mxGraphModel>
  </diagram>
</mxfile>
